<?xml version="1.0" standalone="no"?>
<!DOCTYPE svg PUBLIC "-//W3C//DTD SVG 20010904//EN"
 "http://www.w3.org/TR/2001/REC-SVG-20010904/DTD/svg10.dtd">
<svg version="1.0" xmlns="http://www.w3.org/2000/svg"
 width="700.000000pt" height="700.000000pt" viewBox="0 0 700.000000 700.000000"
 preserveAspectRatio="xMidYMid meet">
<metadata>
Created by potrace 1.14, written by Peter Selinger 2001-2017
</metadata>
<g transform="translate(0.000000,700.000000) scale(0.100000,-0.100000)"
fill="#000000" stroke="none">
<path d="M4820 5450 c-352 -53 -669 -198 -1026 -468 -65 -50 -132 -102 -149
-117 -111 -97 -195 -176 -302 -282 -68 -68 -127 -123 -131 -123 -4 0 -23 15
-42 33 -95 89 -299 233 -441 312 -140 78 -362 166 -481 191 -608 127 -1127 -8
-1688 -439 -58 -44 -107 -84 -110 -88 -3 -3 -25 -23 -50 -44 -40 -33 -225
-205 -351 -326 l-48 -46 107 -111 c59 -61 238 -245 398 -409 161 -164 315
-323 344 -353 200 -210 570 -591 760 -781 272 -273 420 -395 645 -534 374
-232 726 -336 1115 -329 91 1 176 5 190 8 14 3 43 7 65 10 72 8 226 46 334 82
222 75 518 238 711 390 155 123 281 242 680 643 407 408 704 711 1175 1196 53
55 182 186 287 292 l190 192 -174 173 c-199 199 -265 261 -363 342 -38 32 -81
68 -95 80 -111 96 -349 247 -521 331 -187 91 -341 140 -569 180 -85 15 -346
13 -460 -5z m445 -615 c239 -49 482 -174 737 -377 54 -43 108 -88 119 -99 l20
-20 -28 -28 c-70 -71 -681 -697 -772 -791 -273 -282 -817 -821 -901 -894 -91
-79 -254 -206 -264 -206 -2 0 -28 -16 -57 -35 -79 -52 -264 -140 -354 -170
-299 -96 -588 -92 -870 12 -301 112 -556 291 -871 613 l-103 105 92 11 c302
38 510 116 772 290 193 128 337 258 829 749 282 281 320 317 431 411 297 251
620 414 873 440 31 4 58 7 60 9 10 8 221 -7 287 -20z m-3280 -414 c207 -31
345 -82 539 -203 106 -65 246 -176 246 -193 0 -7 -12 -23 -27 -35 -16 -12 -46
-38 -68 -59 -37 -34 -142 -118 -231 -183 -68 -51 -237 -128 -334 -152 -428
-108 -798 1 -1143 339 -48 47 -87 89 -87 93 0 13 164 133 267 195 84 51 125
72 218 112 186 80 430 113 620 86z"/>
</g>
</svg>
